<?xml version="1.0" encoding="UTF-8" standalone="no"?>
<!DOCTYPE svg PUBLIC "-//W3C//DTD SVG 1.1//EN" "http://www.w3.org/Graphics/SVG/1.1/DTD/svg11.dtd">
<!-- Created with Vectornator (http://vectornator.io/) -->
<svg height="100%" stroke-miterlimit="10" style="fill-rule:nonzero;clip-rule:evenodd;stroke-linecap:round;stroke-linejoin:round;" version="1.1" viewBox="0 0 401.27 86.2416" width="100%" xml:space="preserve"
    xmlns="http://www.w3.org/2000/svg"
    xmlns:vectornator="http://vectornator.io"
    xmlns:xlink="http://www.w3.org/1999/xlink">
    <defs/>
    <g id="logo-group" vectornator:layerName="logo-group">
        <g opacity="1" vectornator:layerName="title">
            <path d="M44.8291 47.5652C44.8291 62.0006 33.4741 68.7062 21.3281 68.7062C9.18212 68.7062 0 61.6866 0 61.6866L6.76086 48.638C10.8728 52.9387 17.5806 54.9773 21.3281 54.9773C25.0781 54.9773 28.2495 52.0783 28.2495 49.0521C28.2495 38.0676 2.49511 45.0063 2.49511 23.4513C2.49511 9.63504 12.3901 2.97 23.501 2.97C34.2114 2.97 42.3334 8.00769 42.3334 8.00769L36.0565 20.6439C36.0565 20.6439 30.8057 16.4316 25.9155 16.4316C22.2681 16.4316 18.9948 17.7852 18.9948 21.7996C18.9948 31.1298 44.8285 25.1245 44.8291 47.5652Z" fill="#f3f3f3" fill-rule="nonzero" opacity="1" stroke="#f3f3f3" stroke-linecap="butt" stroke-linejoin="miter" stroke-width="0" vectornator:layerName="path"/>
            <path d="M95.1882 39.389L95.1882 67.0339L80.4586 67.0339L80.4586 44.9101C80.4586 38.0865 78.0941 35.6518 73.8619 35.6518C67.734 35.6518 66.379 40.5022 66.379 43.9892L66.379 67.033L51.6487 67.033L51.6487 24.6673L66.379 24.6673L66.379 29.8338C66.379 29.8338 69.9703 23.76 79.4149 23.76C87.8231 23.76 95.1882 28.5546 95.1882 39.389Z" fill="#f3f3f3" fill-rule="nonzero" opacity="1" stroke="#f3f3f3" stroke-linecap="butt" stroke-linejoin="miter" stroke-width="0" vectornator:layerName="path"/>
            <path d="M135.053 24.6305L149.784 24.6305L149.784 67.0871L135.053 67.0871L135.053 63.4148C131.519 66.6757 126.974 68.638 122.016 68.638C110.748 68.638 101.614 58.5112 101.614 46.019C101.614 33.5268 110.748 23.4 122.016 23.4C126.974 23.4 131.519 25.3632 135.053 28.6223L135.053 24.6305ZM135.053 46.019C135.053 40.6429 131.235 36.2837 126.079 36.2837C120.924 36.2837 116.745 40.6429 116.745 46.019C116.745 51.3961 120.924 55.7552 126.079 55.7552C131.235 55.7552 135.053 51.3951 135.053 46.019Z" fill="#f3f3f3" fill-rule="nonzero" opacity="1" stroke="#f3f3f3" stroke-linecap="butt" stroke-linejoin="miter" stroke-width="0" vectornator:layerName="path"/>
            <path d="M206.869 46.019C206.869 58.5112 197.735 68.638 186.467 68.638C181.508 68.638 176.965 66.6757 173.43 63.4157L173.43 86.2416L158.699 86.2416L158.699 24.7223L173.43 24.7223L173.43 28.6223C176.965 25.3623 181.508 23.4 186.467 23.4C197.735 23.4 206.869 33.5268 206.869 46.019ZM191.739 46.019C191.739 40.6429 187.56 36.2837 182.404 36.2837C177.249 36.2837 173.43 40.6429 173.43 46.019C173.43 51.3961 177.249 55.7552 182.404 55.7552C187.56 55.7552 191.739 51.3951 191.739 46.019Z" fill="#f3f3f3" fill-rule="nonzero" opacity="1" stroke="#f3f3f3" stroke-linecap="butt" stroke-linejoin="miter" stroke-width="0" vectornator:layerName="path"/>
            <g opacity="1" vectornator:layerName="path681848">
                <path d="M238.453 56.4005L238.453 68.6236C229.829 68.6236 216.293 66.8046 216.293 52.0568L216.293 37.6763L211.645 37.6763L211.645 24.6873L216.293 24.6873L216.293 11.97L231.022 11.97L231.022 49.4728C231.022 51.9966 232.391 56.4005 238.453 56.4005Z" fill="#f3f3f3" fill-rule="nonzero" opacity="1" stroke="#f3f3f3" stroke-linecap="butt" stroke-linejoin="miter" stroke-width="0" vectornator:layerName="path"/>
                <path d="M233.826 33.093C233.826 28.4416 237.48 24.6693 241.989 24.6693C246.496 24.6693 250.151 28.4416 250.151 33.093C250.151 37.7456 246.496 41.517 241.989 41.517C237.48 41.517 233.826 37.7456 233.826 33.093Z" fill="#62c4d7" fill-rule="nonzero" opacity="1" stroke="#62c4d7" stroke-linecap="butt" stroke-linejoin="miter" stroke-width="0" vectornator:layerName="path"/>
            </g>
            <g opacity="1" vectornator:layerName="path681850">
                <path d="M255.097 8.42376C255.097 3.77212 258.751 0 263.258 0C267.767 0 271.421 3.77212 271.421 8.42376C271.421 13.0763 267.767 16.8484 263.258 16.8484C258.751 16.8484 255.097 13.0763 255.097 8.42376Z" fill="#62c4d7" fill-rule="nonzero" opacity="1" stroke="#62c4d7" stroke-linecap="butt" stroke-linejoin="miter" stroke-width="0" vectornator:layerName="path"/>
                <path d="M255.852 67.0584L255.852 24.6927L270.583 24.6927L270.583 67.0584L255.852 67.0584Z" fill="#f3f3f3" fill-rule="nonzero" opacity="1" stroke="#f3f3f3" stroke-linecap="butt" stroke-linejoin="miter" stroke-width="0" vectornator:layerName="path"/>
            </g>
            <path d="M349.318 39.389L349.318 67.0339L334.588 67.0339L334.588 44.9101C334.588 38.0865 332.224 35.6518 327.991 35.6518C324.604 35.6518 322.945 37.9308 322.134 40.5563L322.134 67.0339L307.403 67.0339L307.403 44.91C307.403 38.0865 305.039 35.6518 300.806 35.6518C294.68 35.6518 294.191 40.5022 294.191 43.9892L294.191 67.033L279.461 67.033L279.461 24.6673L294.191 24.6673L294.191 29.8338C294.191 29.8338 296.916 23.76 306.36 23.76C312.799 23.76 318.613 26.5844 320.99 32.7671C322.472 29.8229 326.392 23.76 333.545 23.76C341.954 23.76 349.319 28.5546 349.318 39.389Z" fill="#f3f3f3" fill-rule="nonzero" opacity="1" stroke="#f3f3f3" stroke-linecap="butt" stroke-linejoin="miter" stroke-width="0" vectornator:layerName="path"/>
            <path d="M387.137 51.6633L401.218 51.6633C401.218 66.4885 385.483 68.62 378.975 68.62C372.468 68.62 355.884 64.5561 355.884 46.0919C355.884 27.6277 370.207 23.13 378.82 23.13C392.128 23.13 398.359 29.9931 400.429 39.7319C401.01 42.4357 401.27 45.3555 401.27 48.405L370.606 48.405C370.606 55.3456 374.236 58.0665 379.46 58.0665C384.684 58.0665 387.137 55.1295 387.137 51.6633ZM370.959 39.7319L387.466 39.7319L387.37 39.6716C387.37 36.5519 385.014 32.7914 379.218 32.7914C373.43 32.7914 370.96 36.9336 370.959 39.7319Z" fill="#f3f3f3" fill-rule="nonzero" opacity="1" stroke="#f3f3f3" stroke-linecap="butt" stroke-linejoin="miter" stroke-width="0" vectornator:layerName="path"/>
        </g>
    </g>
</svg>
